<svg t="1614253564910" class="icon" viewBox="0 0 1314 1024" xmlns="http://www.w3.org/2000/svg" p-id="2286" width="200" height="200"><path d="M922.132075 145.755519H739.431581l82.830972-82.830972c14.339374-14.339374 14.339374-34.245799.0-48.585173s-34.245799-14.339374-48.585173.0l-139.851071 139.851071H496.843113l-139.851071-139.851071c-11.471499-14.339374-28.510049-17.207249-45.717298-8.603624-2.867875.0-2.867875 2.867875-5.73575 5.735749-14.339374 14.339374-14.339374 34.245799.0 48.585173l85.698847 85.698847H208.368648c-99.869522.0-182.700494 82.830972-182.700494 182.700494v453.96771c0 97.001647 82.830972 179.832619 182.700494 179.83262h28.51005c0 34.245799 28.510049 59.887974 59.887973 59.887973s59.887974-28.510049 59.887974-59.887973h422.589786c2.867875 34.245799 31.377924 59.887974 65.623723 57.020099 31.377924-2.867875 54.320923-25.642175 57.020099-57.020099H924.99995c99.869522.0 182.700494-82.830972 182.700494-182.700495V325.588138c-2.699176-99.869522-85.530148-179.832619-185.568369-179.832619zm-5.735749 705.159802H219.840148c-37.113674.0-65.623723-31.377924-68.491598-68.491598L148.480675 319.852389c0-37.113674 31.377924-68.491598 68.491598-68.491598h696.724876c37.113674.0 65.623723 31.377924 68.491598 68.491598l2.867875 462.571334c-2.867875 39.981549-31.546623 68.491598-68.660296 68.491598zm0 0" p-id="2287"/><path d="M445.390065 408.41911l17.207249 85.698847-228.586491 42.849424-17.207249-85.698847 228.586491-42.849424zM665.204233 494.117957l17.207249-85.698847 228.417792 42.849424-17.207248 85.698847L665.204233 494.117957zm45.717298 179.83262c0 2.867875.0 8.603624-2.867874 11.471499-14.339374 31.377924-45.717298 51.453048-82.830972 54.320922-22.7743.0-45.717298-11.471499-59.887974-28.510049-17.207249 17.207249-37.113674 28.510049-59.887974 28.510049-34.245799-2.867875-65.623723-22.7743-82.830972-54.320922.0-2.867875-2.867875-5.73575-2.867874-11.471499.0-11.471499 8.603624-19.906425 19.906425-22.7743h2.867874c8.603624.0 14.339374 2.867875 17.207249 11.471499.0.0 22.7743 31.377924 42.849424 31.377924 39.981549.0 39.981549-34.245799 62.755848-59.887973 25.642175 28.510049 25.642175 59.887974 62.755848 59.887973 25.642175.0 42.849423-31.377924 42.849424-31.377924 2.867875-5.73575 11.471499-11.471499 17.207249-11.471499 11.471499-2.867875 19.906425 5.73575 22.774299 17.207249v5.567051zm0 0" p-id="2288"/></svg>